# xmcd
#
# Track frame offsets:
#	150
#	17068
#	28992
#	41375
#	54027
#	67993
#	88582
#	113712
#	131786
#	146287
#	161503
#	174820
#	186961
#	202026
#	225891
#
# Disc length: 3205 seconds
#
# Revision: 0
# Processed by: cddbd v1.5PL3 Copyright (c) Steve Scherf et al.
# Submitted via: audiograbber 1.81.02
#
DISCID=b90c830f
DTITLE=Jack Ingram - Young Man
DYEAR=1900
DGENRE=Country
TTITLE0=Beat Up Ford
TTITLE1=Make My Heart Flutter
TTITLE2=Sight Unseen
TTITLE3=Living Beyond My Means
TTITLE4=Things Get Cloudy
TTITLE5=A Song For Amy
TTITLE6=Drive On
TTITLE7=Lonesome Question
TTITLE8=Still Got Scars
TTITLE9=Younger Days
TTITLE10=Tuesday Night
TTITLE11=Workin'
TTITLE12=Mary Go Round
TTITLE13=One Light Town
TTITLE14=Travis County
EXTD=
EXTT0=
EXTT1=
EXTT2=
EXTT3=
EXTT4=
EXTT5=
EXTT6=
EXTT7=
EXTT8=
EXTT9=
EXTT10=
EXTT11=
EXTT12=
EXTT13=
EXTT14=
PLAYORDER=
